# xmcd
#
# Track frame offsets:
#	150
#	21900
#	41892
#	58272
#	80700
#	99425
#	117357
#	136492
#	154722
#	181947
#	199020
#	214142
#	230950
#	250312
#	265835
#	282262
#	302742
#	316460
#	332265
#
# Disc length: 4623 seconds
#
# Revision: 5
# Processed by: cddbd v1.5.2PL0 Copyright (c) Steve Scherf et al.
# Submitted via: audiograbber 1.83.01
#
DISCID=1b120d13
DTITLE=Lionel Richie - Truly The Love Songs
DYEAR=0
DGENRE=
TTITLE0=My Destiny
TTITLE1=Endless Love
TTITLE2=Three Times A Lady
TTITLE3=Don't Wanna Lose You
TTITLE4=Hello
TTITLE5=Sail On
TTITLE6=Easy
TTITLE7=Say You, Say Me
TTITLE8=Do It To Me
TTITLE9=Penny Lover
TTITLE10=Truly
TTITLE11=Still
TTITLE12=Love Will Conquer All
TTITLE13=Sweet Love
TTITLE14=Ballerina Girl
TTITLE15=Still In Love
TTITLE16=Oh No
TTITLE17=Just To Be Close To You
TTITLE18=Stuck On You
EXTD=
EXTT0=
EXTT1=with Diana Ross
EXTT2=
EXTT3=
EXTT4=
EXTT5=
EXTT6=
EXTT7=
EXTT8=
EXTT9=
EXTT10=
EXTT11=
EXTT12=
EXTT13=
EXTT14=
EXTT15=
EXTT16=
EXTT17=
EXTT18=
PLAYORDER=
